<?xml version="1.0" encoding="UTF-8"?>
<svg id="Layer_1" xmlns="http://www.w3.org/2000/svg" viewBox="0 0 459.84 216.68">
  <defs>
    <style>
      .cls-1 {
        fill: #040e65;
      }

      .cls-2 {
        fill: #fdd209;
      }

      .cls-3 {
        fill: #f91c24;
      }

      .cls-4 {
        fill: #030d65;
      }

      .cls-5 {
        fill: #fde161;
      }

      .cls-6 {
        fill: #fddf53;
      }

      .cls-7 {
        fill: #000a63;
      }

      .cls-8 {
        fill: #fde15f;
      }

      .cls-9 {
        fill: #071167;
      }

      .cls-10 {
        fill: #fdd20b;
      }

      .cls-11 {
        fill: #f9fafb;
      }

      .cls-12 {
        fill: #fdd107;
      }

      .cls-13 {
        fill: #fdd20c;
      }

      .cls-14 {
        fill: #fdda38;
      }

      .cls-15 {
        fill: #fdd108;
      }

      .cls-16 {
        fill: #020c64;
      }

      .cls-17 {
        fill: #fdefab;
      }

      .cls-18 {
        fill: #eff0f5;
      }

      .cls-19 {
        fill: #fcfcfd;
      }

      .cls-20 {
        fill: #010a63;
      }

      .cls-21 {
        fill: #f6f6f9;
      }

      .cls-22 {
        fill: #020b64;
      }

      .cls-23 {
        fill: #010b63;
      }

      .cls-24 {
        fill: #fefefe;
      }

      .cls-25 {
        fill: #fdd109;
      }

      .cls-26 {
        fill: #e9eaf1;
      }

      .cls-27 {
        fill: #fddf55;
      }

      .cls-28 {
        fill: #061066;
      }

      .cls-29 {
        fill: #fdd20a;
      }

      .cls-30 {
        fill: #fdfdfd;
      }

      .cls-31 {
        fill: #171f70;
      }

      .cls-32 {
        fill: #060f66;
      }
    </style>
  </defs>
  <path class="cls-3" d="M84.29,109.46c-23.58,30.12-41.78,62.64-50.44,100.07-3.07-1.1-5.38-3.04-7.88-4.62-8.01-5.06-15.94-10.24-24-15.21-2.13-1.32-2.56-2.26-1.16-4.56,11.11-18.14,25.47-33.43,41.47-47.3,12.08-10.48,24.87-19.96,39.02-27.53.83-.44,1.57-1.29,2.99-.84Z"/>
  <path class="cls-7" d="M119.89,131.62c3.25,1.18,5.94,2.17,8.14,4.03,4.82,4.06,6.14,9.37,4.55,15.18-1.85,6.73-7.1,10.12-13.63,11.24-7.91,1.35-15.95.52-23.94.71-1.81.04-2.01-.88-2.01-2.32.02-18.05.02-36.09,0-54.14,0-1.43.18-2.36,2-2.3,6.73.23,13.5-.46,20.2.62,9.08,1.47,14.4,9.11,12.59,17.85-.89,4.3-3.99,6.69-7.9,9.13Z"/>
  <path class="cls-7" d="M430.85,159.18c-4.17-5.05-3.83-6.54,2.46-10.11-3.6-2.43-6.81-4.99-7.39-9.75-1.01-8.25,4.05-14.47,13.16-15.03,6.81-.42,13.67-.08,20.76-.08-1.19,4.92-5.41,5.01-8.98,6.05,7.18,9.06.98,18.8-8.35,20.07-1.6.22-3.2.56-4.76.96-1.23.32-2.49.87-2.54,2.36-.05,1.45,1.05,2.24,2.3,2.6,3.59,1.02,7.2,1.96,10.81,2.91,5.84,1.53,9,4.67,9.29,9.29.33,5.39-2.14,8.9-8.08,11.07-6.71,2.45-13.45,2.33-20.06-.39-4.38-1.8-7.14-4.92-7.13-9.92,0-4.81,2.85-7.45,7-9.1.46-.18.91-.39,1.35-.61.09-.04.11-.2.17-.31Z"/>
  <path class="cls-3" d="M175.07,44.49c-1.79,8.18-3.4,15.45-4.95,22.72-.35,1.64-1.15,2.53-2.84,2.94-23.01,5.5-44.19,15.35-64.54,27.13-1.25.72-2.52,1.41-3.96,1.83,21.61-23.1,45.99-42.33,76.29-54.62Z"/>
  <path class="cls-7" d="M380.78,151.12c.38,7.78-.33,8.79-7.43,10.44-21.23,4.94-28.65-11.81-24.92-25.75,2.09-7.83,9.02-12.71,17.36-12.45,7.98.25,13.58,5.23,15.35,13.67q1.38,6.55-5.26,6.55c-5.99,0-11.98.14-17.96-.06-2.8-.1-3.03.92-2.44,3.21,1.31,5.07,5.59,8.49,11.22,8.68,4.98.16,9.53-1.28,14.07-4.28Z"/>
  <path class="cls-23" d="M179.79,128.9c4.07-3.85,7.79-5.84,12.48-5.57,6.26.36,11.14,4.62,11.95,10.8,1.15,8.8.3,17.65.56,26.47.06,2.07-1.03,1.92-2.37,1.31-2.81-1.28-4.5-3.43-5.04-6.49-.77-4.33-.22-8.69-.4-13.03-.07-1.86-.08-3.74-.29-5.58-.56-5.03-3.26-7.5-7.74-7.2-5.46.37-8.94,3.63-8.95,8.45-.02,7.09-.21,14.19.09,21.27.14,3.37-1.41,3.55-3.98,3.47-2.35-.07-4.21.3-4.12-3.32.28-10.44.06-20.9.14-31.35.01-1.66-1.19-4.41,2.44-4,2.47.28,6.39-1.62,5.22,4.78Z"/>
  <path class="cls-20" d="M279.87,136.13c0,9.33.11,18.65-.04,27.97-.1,6.47-1.58,12.33-8.2,15.54-3.8,1.84-7.79,1.35-11.75,1.42-.41,0-1.21-.41-1.19-.54.24-1.72.77-3.41.87-5.12.15-2.59,1.96-2.01,3.49-2.09,5.46-.27,7.78-2.17,8.31-7.57.41-4.19.28-8.44.29-12.66.03-13.3.05-26.61-.02-39.91-.02-3.86,1.41-6.72,4.84-8.55,2.29-1.22,3.51-1.23,3.45,2.05-.17,9.82-.06,19.64-.06,29.47Z"/>
  <path class="cls-7" d="M168.22,156.42c-2.12,6.82-7.53,8.71-12.12,4.42-1.12-1.04-1.61-.55-2.42-.06-2.51,1.51-5.25,2.29-8.15,2.45-3.83.21-6.84-1.35-8.73-4.66-1.8-3.14-1.75-6.41.17-9.54,1.34-2.18,3.16-3.88,5.52-4.86,2.98-1.25,6.01-2.38,9.06-3.44,2.06-.72,4.44-.75,3.94-4.13-.47-3.19-1.66-5.4-5.04-6-3.52-.63-6.67.34-9.55,2.28-1.42.96-2.73,2.08-4.14,3.16-1.59-7.52-.52-9.94,7.29-12.14,3.88-1.09,7.9-1.02,11.73.63,4.59,1.97,7,5.46,7.07,10.42.09,6.21.04,12.43.06,18.64.01,4.77.3,4.94,5.3,2.83Z"/>
  <path class="cls-23" d="M395.34,128.96c4-3.73,7.49-5.71,11.88-5.63,6.29.12,11.32,4.34,12.1,10.55,1.09,8.67.26,17.41.5,26.11.05,1.94-1.02,1.96-2.42,1.6-3.06-.79-4.69-2.86-4.79-5.9-.21-5.72-.14-11.44-.31-17.16-.17-5.55-2.03-8.17-6.1-8.95-5.43-1.04-10.57,3.08-10.58,8.5,0,6.97-.19,13.95.07,20.91.14,3.66-2.15,2.76-4.12,2.89-2.18.14-3.72.13-3.65-2.97.21-10.2.04-20.41.11-30.62.01-1.82-1.13-4.54,2.7-4.2,2.57.23,5.97-1,4.62,4.87Z"/>
  <path class="cls-7" d="M317.33,155.73c-2.82,7.2-6.62,8.38-12.1,4-1-.8-1.55-.37-2.24.13-1.76,1.26-3.77,1.93-5.87,2.27-5.53.9-9.7-1.24-11.25-5.67-1.59-4.56.36-9.35,4.94-12.03,3.14-1.84,6.63-2.8,10.05-3.95,2.09-.7,4.38-1.01,3.93-4.28-.42-3.09-1.7-5.2-4.85-5.75-3.48-.61-6.68.26-9.55,2.29-1.38.97-2.67,2.06-4.57,3.53.7-3.56-1.32-6.82,1.57-9.28,4.43-3.78,9.73-4.38,15.16-3.27,6.34,1.3,9.46,5.37,9.58,11.94.1,5.71.02,11.43.03,17.14,0,4.86.2,4.99,5.19,2.93Z"/>
  <path class="cls-12" d="M184.47,6.7c-20.13,12.25-39.12,24.94-55.79,42.2.36-3.44,2.05-5.1,3.2-6.96,9.2-14.97,21-27.76,33.61-39.88,2.29-2.2,4.23-2.76,7.13-1.09,3.62,2.08,7.52,3.67,11.85,5.73Z"/>
  <path class="cls-23" d="M317.3,130.79c4.25-4.54,8.47-9.04,12.69-13.56,1.73,2.12-1.08,5.59,1.69,6.69,2.16.86,4.94.38,7.42.16,2.7-.24,3.58.49,3.68,3.4.12,3.39-1.48,3.45-3.99,3.43-8.2-.08-8.2-.02-8.2,7.99,0,3.36-.1,6.73.04,10.08.24,5.82,2.91,7.77,8.61,6.36,1.68-.41,3.29-1.08,4.94-1.64,1.17,6.64.23,7.88-6.37,8.54-9.87.98-14.53-3.19-14.54-13.04,0-4.73-.26-9.48.08-14.18.26-3.54-1-4.68-4.33-4.16-.69.11-1.41-.05-1.73-.07Z"/>
  <path class="cls-15" d="M79.94,106.07c-20.2,7-39.42,15.79-56.55,28.73l-.73-.68c2.64-6.08,5.23-12.17,7.97-18.21.3-.65,1.33-1.08,2.12-1.39,15.09-6,30.78-8.91,47.19-8.46Z"/>
  <path class="cls-23" d="M219.16,104.35c0,18.77-.03,37.51.03,56.26.01,3.13-2.18,2.15-3.63,2.07-1.5-.09-4.03,1.36-4.02-2.05.06-16.52,0-33.04.14-49.56.04-4.3,2.34-6.14,7.47-6.71Z"/>
  <path class="cls-23" d="M245.47,124.57c-4.85,5.57-9.38,11.01-14.19,16.19-1.73,1.87-1.43,2.8.24,4.37,5.76,5.43,11.38,11.02,17.77,17.25-7.11.14-12.21-2.1-16.49-6.01-4.04-3.68-7.63-7.85-11.56-11.65-1.41-1.36-1.41-2.15-.06-3.55,3.61-3.77,7.4-7.46,10.45-11.66,3.49-4.81,7.68-6.58,13.85-4.94Z"/>
  <path class="cls-15" d="M96.52,89.67c2.63-9.72,5.72-19.17,9.93-28.24,1.31-2.82,2.83-5.54,3.97-8.42.96-2.42,2.17-2.27,3.86-.92.39.31.82.57,1.23.84,6.68,4.43,6.62,4.38,1.61,10.38-6.46,7.74-12.68,15.66-18.01,24.24-.54.87-.8,2.19-2.59,2.11Z"/>
  <path class="cls-25" d="M91.47,90.61c-3.76-7.84-4.72-16.21-5.7-24.56-.14-1.23-.11-2.48-.19-3.72-.56-8.18-.56-8.14,7.56-9.02,1.61-.17,1.93.21,1.72,1.74-1.66,11.8-2.47,23.68-3.38,35.56Z"/>
  <path class="cls-15" d="M98.25,41.77c-.85-10.68-.55-21.15,3-31.33.85-2.43,1.87-3.43,4.47-3.11,2.19.27,4.45.05,7.37.05-6.44,11.27-10.6,22.83-14.85,34.39Z"/>
  <path class="cls-25" d="M77.12,100.66c-11.44-.76-22.77-2.27-34.61-2.83,2.16-3.43,4.89-5.93,7.29-8.68.71-.81,1.57-.5,2.42-.23,8.79,2.79,17.18,6.42,24.9,11.73Z"/>
  <path class="cls-22" d="M311.34,210.96c-5.86.03-5.82.03-4.93-5.64.56-3.54,1.02-7.1,1.46-10.66.23-1.81.8-2.93,2.99-2.68,1.96.23,3.98-.04,5.96.12,3.91.32,5.66,3.16,4.28,6.81-.36.94-1.17,1.51-.58,2.92,2.16,5.18-.19,8.71-5.82,9.11-1.11.08-2.24.01-3.35.01Z"/>
  <path class="cls-4" d="M435.12,207.78c.31-2.14.86-5.33,1.19-8.54.18-1.81,1.13-1.77,2.63-2.12,4.08-.96,7.97,1.83,12.18-.05,2.93-1.3,5.8,1.27,5.65,4.53-.12,2.59-.69,5.16-1.02,7.75-.19,1.47-1.09,1.78-2.37,1.62-1.69-.21-.98-1.46-.91-2.29.15-1.85.5-3.69.72-5.54.17-1.47-.03-2.87-1.83-3.1-1.72-.21-2.96.69-3.32,2.35-.44,2.06-.72,4.17-.87,6.27-.13,1.68-.72,2.6-2.52,2.31-1.94-.31-.94-1.64-.84-2.59.16-1.61.39-3.21.64-4.8.24-1.58.31-3.12-1.7-3.49-1.96-.36-3.13.82-3.51,2.56-.48,2.18-.8,4.41-.96,6.63-.11,1.57-.89,1.79-2.18,1.71-1.7-.1-1.12-1.23-.97-3.21Z"/>
  <path class="cls-16" d="M345.51,210.99c-1,0-2-.06-2.99.01-1.53.12-1.93-.53-1.71-1.98.77-5.02,1.47-10.05,2.15-15.08.15-1.1.36-1.93,1.71-1.91,4.18.07,8.64-.77,11.7,3.19,2.46,3.19,2.3,6.73.72,10.19-2.03,4.43-5.91,5.7-10.46,5.58-.37,0-.75,0-1.12,0Z"/>
  <path class="cls-16" d="M330.26,192c2.56.09,4.48-.21,6.16.89,2.54,1.66,3.81,4.5,2.18,6.7-2.56,3.46-3.85,6.42-1.05,10.19.43.58-.05,1.19-.85,1.17-1.06-.02-2.27.37-2.8-1.13-.49-1.4-1.24-2.72-1.67-4.13-.47-1.53-1.49-1.65-2.85-1.68-1.86-.05-1.19,1.45-1.71,2.25-.98,1.52,1.06,5.23-2.56,4.59-3.4-.6-.74-3.42-.76-5.1-.03-2.94,1.08-5.88,1.12-8.83.05-3.92,1.24-5.95,4.79-4.9Z"/>
  <path class="cls-2" d="M33.91,84.62c-8.53-.37-17.06-.73-26.14-1.12,2.16-3.29,4.87-5.39,7.11-7.89,1.04-1.17,2.12-.26,3.07.09,7.33,2.69,14.64,5.45,21.96,8.19-1.77,2.1-3.97.7-5.99.74Z"/>
  <path class="cls-1" d="M372.15,191.72c2.42.13,4.32.69,5.7,2.28.64.73,1.92,1.61.66,2.73-.89.79-1.96.98-2.86-.3-.4-.57-1.09-1.1-1.75-1.28-1.72-.46-3.7-.76-4.51,1.3-.83,2.12.97,2.74,2.54,3.3.58.21,1.18.38,1.76.59,2.75.98,5.07,2.34,4.59,5.81-.47,3.4-2.91,4.73-5.95,5.17-3.12.46-6.97-1.64-7.77-4-.27-.8-.39-1.44.58-1.78.94-.33,1.78-.7,2.51.54,1.04,1.76,2.75,2.48,4.78,2.12,1.15-.21,2.11-.86,2.38-2.1.3-1.4-.69-1.99-1.77-2.42-.92-.37-1.85-.74-2.8-.99-3.01-.81-4.87-2.56-4.51-5.84.33-3.05,3.27-5.19,6.42-5.14Z"/>
  <path class="cls-29" d="M52.72,103.73c-9.49,1.18-18.94,2.49-28.76,4.66.42-2.74,1.71-4.81,2.6-7.01.48-1.18,1.47-1.19,2.49-1.12,7.94.57,15.86,1.26,23.67,3.47Z"/>
  <path class="cls-28" d="M419.38,204.84c.04-4.39,3.41-7.95,7.24-8.05,3.44-.09,6.09,2.17,6.47,5.42.23,1.98-.23,3.09-2.55,2.85-1.6-.16-3.24-.11-4.85,0-.87.06-2.29-.66-2.49.77-.21,1.45,1.07,2.14,2.3,2.51,1.31.39,2.46-.18,3.46-.95,1.24-.97,2.31-.24,2.88.59.62.91-.58,1.47-1.2,1.92-2.42,1.73-5.06,2.06-7.74.66-2.44-1.27-3.48-3.44-3.51-5.71Z"/>
  <path class="cls-4" d="M386.69,205.65c3.83-1.99,2.12-9.07,8.88-8.32-2.99,5.54-5.75,10.78-8.64,15.95-1.14,2.04-2.93,3.35-5.41,3.4-.91.02-1.81-.07-1.92-1.25-.1-1.11.16-1.63,1.57-1.8,2.98-.36,3.75-2.31,2.96-5.1-.87-3.09-1.62-6.22-2.36-9.35-.16-.68-1.08-1.78.53-1.91.99-.08,2.28-.61,2.64,1.13.51,2.42,1.14,4.81,1.74,7.26Z"/>
  <path class="cls-29" d="M33.95,137.48c-6.62,5.6-13.31,11.11-18.82,18.07-2.21-5.59-1.18-9.16,3.32-11.9,4.65-2.83,9.42-5.44,14.72-6.91.8-.31.93.07.77.75Z"/>
  <path class="cls-29" d="M77.47,93.78c-6.07-4.23-12.14-8.45-18.25-12.71.18-.17.26-.29.37-.33,9.26-3.3,8.03-4.67,14.1,4.33,1.65,2.45,3.02,5.1,4.52,7.66-.04.5-.29.84-.74,1.05Z"/>
  <path class="cls-10" d="M80.52,66.78c1.06,8.76,2.9,16.69,4.26,24.75-4.76-5.59-7.43-12.2-9.9-18.93-.65-1.77.9-2.07,1.76-2.8,1.02-.88,2.13-1.66,3.88-3.01Z"/>
  <path class="cls-32" d="M400.62,211.47c-.79-.27-2.09-.46-3.09-1.11-1.04-.67-2.82-1.58-1.79-3.08.96-1.4,2.25-.57,3.28.6.93,1.05,2.28.89,3.48.46.33-.12.72-.81.66-1.17-.21-1.43-1.52-1.4-2.57-1.7-1.98-.57-3.88-1.32-4.02-3.77-.12-2.08.89-3.55,2.84-4.34,2.4-.97,4.65-.71,6.6,1.02.6.53,1.53,1.34.81,2.16-.57.65-1.63,1.24-2.56.17-.6-.69-1.37-1.07-2.28-1.11-.94-.05-1.8.22-2.05,1.21-.23.91.5,1.32,1.21,1.6.46.18.96.26,1.43.41,2.22.74,4.41,1.67,3.98,4.54-.46,3.01-2.91,3.71-5.95,4.11Z"/>
  <path class="cls-13" d="M101.36,54.42c.26-6.15,2.38-11.87,4.62-17.46,1.33-3.34,4.21-.73,6.86-1.04-4.56,7.08-7.49,14.43-10.73,21.63-1.86-.66-.77-2.02-.75-3.13Z"/>
  <path class="cls-9" d="M410.61,206.99c.17-1.35.41-2.7.5-4.06.08-1.1.83-2.46-1.16-2.91-.94-.21-.73-1.46-.39-1.88,1.12-1.37,2.48-2.52,3.53-3.99.35-.48,2.34-.74,2.39.53.08,1.87.7,2.23,2.41,2.8,1.35.45.57,2.55-.77,2.59-3.86.14-2.15,3.21-2.82,4.93-.54,1.38-.55,3.04,1.69,3.3,1.06.12,1.04.86.85,1.65-.2.84-.79,1.17-1.61,1.27-2.49.3-4.58-1.59-4.63-4.23Z"/>
  <path class="cls-10" d="M24.94,114.23c-6.96,1.82-13.81,3.96-20.53,6.67.24-5.97,1.1-6.83,6.8-7.52,4.58-.55,9.16-.64,13.76-.39.47.42.48.84-.03,1.24Z"/>
  <path class="cls-13" d="M43.83,59.21c2.28-1.02,4.1-1.73,5.82-2.62,1.46-.75,2.08.3,2.74,1.11,2.67,3.25,5.27,6.54,7.9,9.82.39.48.9,1.04.54,1.63-.39.65-1.06.46-1.59.04-4.62-3.7-9.82-6.54-15.41-9.97Z"/>
  <path class="cls-9" d="M283.76,209.4c.52-3.77,1.07-7.06,1.38-10.37.17-1.76,1.13-1.97,2.5-1.84,1.7.15,1.01,1.28.89,2.18-.44,3.3-.89,6.6-1.31,9.9-.18,1.4-.98,1.8-2.31,1.75-1.68-.07-1.17-1.18-1.16-1.61Z"/>
  <path class="cls-9" d="M296.83,205.54c-1.24,0-2.47.03-3.71-.01-.68-.02-1.62.16-1.39-1.06.15-.78-.11-1.86,1.22-1.87,2.84,0,5.69,0,8.53,0,1.08,0,1.09.71,1.05,1.5-.05.81-.26,1.43-1.25,1.43-1.48-.01-2.97,0-4.45,0,0,0,0,0,0,.01Z"/>
  <path class="cls-31" d="M287.52,195.71c-1.59.18-1.69-.66-1.65-1.82.06-1.39.59-2.05,2.04-1.9.88.09,1.89,0,1.56,1.36-.27,1.13-.1,2.72-1.96,2.36Z"/>
  <path class="cls-5" d="M33.91,84.62c1.95-.63,4.13.58,5.99-.74.78.26,1.57.52,2.35.77-2.82.63-5.59.89-8.34-.03Z"/>
  <path class="cls-14" d="M101.36,54.42c.37,1.01-.28,2.27.75,3.13-.22.76-.43,1.51-.65,2.27-1.42.16-1.04-.74-.89-1.5.28-1.3-.07-2.72.79-3.9Z"/>
  <path class="cls-27" d="M33.95,137.48c-.26-.25-.52-.5-.77-.75.87-.99,2.09-.82,3.56-1.53-.86,1.55-1.66,2.14-2.79,2.27Z"/>
  <path class="cls-8" d="M77.47,93.78c.25-.35.49-.7.74-1.05.92.51,1.08,1.46,1.71,2.56-1.39-.1-1.96-.73-2.45-1.51Z"/>
  <path class="cls-17" d="M100.56,58.32c.21.55.15,1.27.89,1.5-.21.7-.37,1.44-1.28,1.66-.33-1.13-.38-2.19.38-3.16Z"/>
  <path class="cls-6" d="M24.94,114.23c0-.41.02-.82.03-1.24.82-.18,1.63-.26,2.45.18-.62.89-1.49,1.11-2.48,1.06Z"/>
  <path class="cls-24" d="M101.48,145.73q0-9.06,9.03-9c2.76.02,5.5.13,8.11,1.13,4.02,1.54,6.32,5.05,5.89,8.95-.42,3.92-3.39,7.26-7.38,7.87-4.57.7-9.21.6-13.83.61-1.57,0-1.86-.78-1.84-2.09.05-2.49.01-4.98.01-7.46Z"/>
  <path class="cls-30" d="M101.48,120.29c0-.5-.09-1.01.02-1.48.56-2.38-1.54-6.44,1.1-6.93,4.84-.9,10.36-1.44,14.61,2.26,2.71,2.35,2.65,5.7,1.68,8.98-.81,2.76-2.9,4.21-5.42,5.21-.34.14-.71.21-1.08.29-9.81,2.3-10.92,1.45-10.92-8.32Z"/>
  <path class="cls-30" d="M439.85,175.13c-2.14-.16-4.53-.02-6.78-.92-2.14-.86-3.62-2.28-3.66-4.67-.04-2.19,1.12-3.78,3.16-4.6,5.43-2.21,10.77-1.72,15.7,1.25,3.01,1.81,2.71,5.41-.27,7.33-2.43,1.56-5.21,1.47-8.14,1.61Z"/>
  <path class="cls-30" d="M439.98,130.7c4.32.09,7.23,2.85,7.2,6.85-.03,4.07-3.2,6.85-7.69,6.74-4.27-.11-7.22-3.04-7.04-6.99.18-3.92,3.33-6.68,7.53-6.59Z"/>
  <path class="cls-19" d="M364.78,139.07c-2.5,0-5-.04-7.49.02-1.41.03-2.03-.29-1.73-1.91.73-3.89,4.5-7.12,8.81-7.34,4.88-.26,8.15,2.01,9.33,6.27.58,2.09.56,3.29-2.19,3.01-2.22-.23-4.49-.05-6.74-.05Z"/>
  <path class="cls-30" d="M155.5,149.76c0,6.02-1.51,7.92-6.3,8.15-2.66.13-4.65-.75-5.66-3.28-1.01-2.52-.21-4.67,1.75-6.34,2.51-2.13,5.61-3.13,8.69-4.13,1.21-.39,1.56-.01,1.52,1.14-.04,1.49-.01,2.98,0,4.47Z"/>
  <path class="cls-19" d="M304.73,149.46c0,5.62-1.9,7.79-6.68,7.77-2.42-.01-4.07-1.16-4.95-3.26-.89-2.12-.52-4.23,1.24-5.77,1.19-1.04,2.63-1.85,4.07-2.55,6.31-3.08,6.32-3.06,6.32,3.81Z"/>
  <path class="cls-11" d="M312.66,207.88c-1.1-.21-3.05.9-2.86-2.09.18-2.76,1.16-3.65,3.83-3.35,1.96.21,4.45-.23,4.3,2.63-.16,3.06-2.78,2.89-5.28,2.81Z"/>
  <path class="cls-18" d="M314.07,194.96c2.05.12,4.18-.26,3.9,2.19-.28,2.47-2.48,2.45-4.37,2.27-1.07-.1-2.91.95-2.68-1.7.21-2.52,1.43-3.14,3.16-2.76Z"/>
  <path class="cls-19" d="M347.02,207.9c-2.22.46-2.63-.61-2.04-2.86.5-1.9.43-3.94.89-5.86.37-1.51-.99-4.09,2.24-4.11,2.96-.02,5.4.67,6.31,3.95,1.31,4.73-1.95,8.85-7.4,8.88Z"/>
  <path class="cls-21" d="M330.53,201.01c-.79.02-2.39.3-1.85-1.95.4-1.66-.6-4.28,2.77-4.02,1.91.15,3.87.02,4,2.65.11,2.13-1.47,3.3-4.93,3.32Z"/>
  <path class="cls-26" d="M423.27,202.52c.68-2.01,1.63-2.84,3.16-2.91,1.52-.07,3.01.5,3,2.03-.01,1.63-1.7.69-2.62.84-1.05.17-2.16.04-3.54.04Z"/>
</svg>